<svg width="512" height="512" viewBox="0 0 512 512" fill="none" xmlns="http://www.w3.org/2000/svg">
  <rect width="512" height="512" rx="114" fill="url(#lg)"/>
  <!-- alert sparks -->
  <line x1="212" y1="72" x2="179" y2="33" stroke="rgba(255,255,255,.55)" stroke-width="18" stroke-linecap="round"/>
  <line x1="300" y1="72" x2="333" y2="33" stroke="rgba(255,255,255,.55)" stroke-width="18" stroke-linecap="round"/>
  <!-- bell handle -->
  <rect x="223" y="67" width="66" height="55" rx="33" fill="rgba(255,255,255,.55)"/>
  <!-- bell body -->
  <path d="M256 122C178 122 112 178 112 268L112 301Q112 346 145 346L367 346Q400 346 400 301L400 268C400 178 334 122 256 122Z" fill="white" opacity=".9"/>
  <!-- clapper -->
  <circle cx="256" cy="395" r="33" fill="rgba(255,255,255,.7)"/>
  <!-- sound waves -->
  <path d="M83 178Q45 256 83 334" stroke="rgba(255,255,255,.65)" stroke-width="20" stroke-linecap="round" fill="none"/>
  <path d="M429 178Q467 256 429 334" stroke="rgba(255,255,255,.65)" stroke-width="20" stroke-linecap="round" fill="none"/>
  <defs>
    <linearGradient id="lg" x1="0" y1="0" x2="512" y2="512" gradientUnits="userSpaceOnUse">
      <stop offset="0%" stop-color="#4f46e5"/>
      <stop offset="100%" stop-color="#7c3aed"/>
    </linearGradient>
  </defs>
</svg>
